<svg width="482" height="510" xmlns="http://www.w3.org/2000/svg" preserveAspectRatio="xMidYMid meet">

 <g>
  <title>background</title>
  <rect fill="none" id="canvas_background" height="402" width="582" y="-1" x="-1"/>
 </g>
 <g>
  <title>Layer 1</title>
  <rect id="svg_8" height="234" width="446" y="25" x="12.5" stroke-width="1.5" stroke="#000" fill="#fffafa"/>
  <rect id="svg_9" height="230" width="452" y="265" x="19.5" stroke-width="1.5" stroke="#000" fill="#d1c1c6"/>
  <g id="svg_1" fill="#000000" transform="translate(0,510) scale(0.10000000149011612,-0.10000000149011612) ">
   <path fill="#86050a" id="svg_2" d="m0,2550l0,-2550l2405,0l2405,0l0,2550l0,2550l-2405,0l-2405,0l0,-2550zm3770,2129c87,-14 230,-63 310,-107c71,-38 192,-125 227,-164c32,-34 44,-113 41,-274l-3,-139l-37,50c-21,28 -63,99 -95,158c-92,171 -158,241 -292,307c-157,78 -393,79 -611,2l-55,-19l-3,-821l-2,-822l37,-16c91,-39 266,-75 363,-75c192,1 355,59 623,225c76,47 135,80 131,73c-33,-57 -105,-146 -164,-200c-92,-85 -226,-154 -375,-193c-101,-26 -124,-29 -280,-28c-153,0 -180,3 -270,27c-401,109 -647,385 -719,806c-45,266 14,558 159,782c137,212 390,376 653,423c93,17 273,20 362,5zm-2718,-481l3,-453l455,0l455,0l5,450l5,450l65,3c36,2 102,1 148,-3l82,-7l0,-977l0,-978l-77,-7c-42,-3 -109,-6 -149,-6l-74,0l-2,478l-3,477l-457,3l-458,2l0,-480l0,-480l-315,0l-315,0l0,990l0,990l315,0l315,0l2,-452zm-29,-1814l45,-6l60,-132c154,-333 232,-505 232,-511c0,-13 224,-465 231,-465c3,0 20,33 37,73c16,39 46,108 65,152c19,44 62,145 96,225c35,80 78,179 96,220c18,41 49,113 70,160c20,47 58,131 83,187l47,103l153,0l152,0l0,-980l0,-980l-69,0c-37,0 -96,-3 -130,-6l-61,-7l0,624c0,608 -7,820 -33,1004l-13,90l-18,-40c-10,-22 -31,-74 -48,-115c-73,-183 -148,-361 -258,-610c-45,-102 -97,-219 -115,-260c-41,-93 -306,-658 -322,-685c-6,-11 -14,-18 -16,-15c-15,15 -315,652 -490,1040c-36,80 -106,234 -156,343c-50,109 -91,203 -91,209c0,9 -3,9 -12,0c-10,-10 -13,-195 -16,-797c-4,-617 -7,-785 -17,-785c-7,0 -33,3 -59,6l-46,7l0,978l0,979l279,0c153,0 299,-3 324,-6zm2887,-21c276,-52 434,-186 480,-408c16,-77 7,-156 -26,-242c-22,-54 -42,-82 -100,-140c-59,-59 -91,-80 -176,-121c-56,-27 -127,-57 -155,-66c-29,-10 -55,-22 -59,-27c-3,-5 5,-22 18,-38c31,-38 217,-258 310,-367c342,-399 438,-513 438,-519c0,-3 -90,-5 -199,-5l-199,0l-85,113c-47,61 -120,157 -162,212c-83,109 -261,346 -307,410c-127,175 -124,172 -174,179c-26,3 -69,6 -95,6l-49,0l0,-460l0,-460l-325,0l-325,0l0,868c0,947 4,1078 29,1086c9,3 250,3 536,1c466,-2 531,-5 625,-22z"/>
   <path fill="#86050a" id="svg_3" d="m3096,4344c-160,-240 -234,-488 -223,-744c9,-205 57,-337 200,-558l62,-97l8,364c5,201 5,529 0,729l-8,365l-39,-59z"/>
   <path fill="#86050a" id="svg_4" d="m530,3670l0,-890l73,0c39,0 89,3 110,6l37,7l0,883l0,884l-110,0l-110,0l0,-890z"/>
   <path fill="#86050a" id="svg_5" d="m602,2233c17,-43 43,-107 59,-142c16,-35 29,-68 29,-72c0,-8 49,-121 110,-254c33,-74 411,-889 446,-963c19,-39 34,-77 34,-82c0,-22 24,-7 73,46c100,109 100,113 5,329c-61,139 -287,637 -363,800c-48,102 -142,311 -160,356l-19,46l-75,7c-41,3 -95,6 -121,6l-48,0l30,-77z"/>
   <path fill="#86050a" id="svg_6" d="m2820,1415l0,-885l53,0c30,0 88,3 131,6l76,7l-2,866l-3,866l-80,7c-44,4 -101,9 -127,12l-48,5l0,-884z"/>
   <path fill="#86050a" id="svg_7" d="m3380,2223c-10,-50 -14,-162 -14,-425c0,-197 2,-360 5,-362c3,-3 34,-1 69,5c36,5 128,18 204,29c159,22 227,49 317,124c115,95 147,267 87,469c-16,54 -70,112 -142,152c-79,44 -247,75 -405,75l-107,0l-14,-67z"/>
  </g>
 </g>
</svg>